<?xml version="1.0" encoding="utf-8"?>
<!DOCTYPE svg PUBLIC "-//W3C//DTD SVG 1.0//EN" "http://www.w3.org/TR/2001/REC-SVG-20010904/DTD/svg10.dtd">
<svg version="1.0" xmlns="http://www.w3.org/2000/svg" width="600px" height="331px" viewBox="0 0 600 331" preserveAspectRatio="xMidYMid meet">
 <g fill="#eb1250">
  <path d="M 315.33 288.42 c -1.03 -0.33 -2.60 -1.34 -3.70 -2.39 -1.08 -1.01 -1.73 -2.81 -2.48 -6.68 -0.38 -1.99 -0.84 -4.29 -1.03 -5.13 -0.21 -0.84 -0.47 -2.20 -0.61 -3.05 -0.14 -0.84 -0.42 -2.34 -0.61 -3.33 -0.45 -2.20 -0.42 -2.04 -0.77 -4.17 -0.16 -0.96 -0.40 -2.16 -0.52 -2.65 -0.14 -0.52 -0.33 -1.45 -0.45 -2.11 -0.12 -0.68 -0.38 -2.02 -0.59 -2.98 -0.21 -0.96 -0.52 -2.55 -0.70 -3.52 -0.16 -0.96 -0.52 -2.81 -0.77 -4.10 -0.26 -1.29 -0.82 -4.08 -1.22 -6.21 -0.80 -4.20 -1.57 -8.13 -2.44 -12.54 -0.33 -1.55 -0.63 -3.23 -0.73 -3.75 -0.07 -0.52 -0.28 -1.57 -0.47 -2.34 -0.16 -0.77 -0.54 -2.63 -0.80 -4.10 -0.28 -1.48 -0.61 -3.12 -0.73 -3.63 -0.12 -0.52 -0.42 -2.20 -0.70 -3.75 -0.28 -1.55 -0.91 -4.92 -1.43 -7.50 -0.49 -2.58 -1.34 -7.01 -1.85 -9.84 -0.54 -2.84 -1.17 -6.26 -1.43 -7.62 -0.26 -1.36 -0.56 -3.07 -0.68 -3.80 -0.12 -0.75 -0.26 -1.43 -0.33 -1.55 -0.26 -0.42 -2.60 -12.89 -3.21 -17.16 -0.12 -0.84 -0.38 -2.16 -0.56 -2.93 -0.16 -0.77 -0.49 -2.34 -0.70 -3.52 -0.21 -1.15 -0.63 -3.26 -0.94 -4.69 -0.30 -1.41 -0.68 -3.30 -0.82 -4.22 -0.16 -0.89 -0.47 -2.58 -0.73 -3.75 -0.68 -3.30 -2.74 -14.16 -3.73 -19.80 -0.28 -1.48 -0.63 -3.38 -0.82 -4.22 -0.38 -1.71 -1.31 -6.70 -1.88 -10.08 -0.40 -2.34 -0.87 -4.71 -1.43 -7.27 -0.16 -0.84 -0.59 -3 -0.91 -4.80 -0.35 -1.80 -0.77 -4.01 -0.96 -4.92 -0.19 -0.89 -0.54 -2.98 -0.80 -4.64 -0.49 -3.26 -0.70 -3.91 -1.10 -3.40 -0.14 0.16 -0.30 0.63 -0.38 1.01 -0.07 0.40 -0.54 2.51 -1.01 4.69 -2.67 12.42 -3.16 14.77 -3.38 16.29 -0.28 1.99 -1.48 7.64 -3.77 18.05 -1.17 5.23 -2.37 10.66 -2.67 12.07 -0.33 1.43 -0.84 4.01 -1.17 5.74 -0.30 1.73 -1.05 5.27 -1.64 7.85 -0.59 2.58 -1.59 7.17 -2.25 10.20 -0.63 3.02 -1.38 5.93 -1.62 6.45 -0.66 1.36 -2.60 3.26 -4.05 3.96 -1.24 0.61 -1.24 0.61 -87.30 0.61 -86.04 0 -86.04 0 -87.33 -0.49 -1.59 -0.59 -3.56 -2.32 -4.41 -3.89 -1.97 -3.63 -0.35 -8.32 3.61 -10.43 1.01 -0.54 1.01 -0.54 83.44 -0.61 82.43 -0.05 82.43 -0.05 82.69 -1.41 0.14 -0.73 0.42 -1.85 0.59 -2.51 0.19 -0.63 0.82 -3.59 1.41 -6.56 0.59 -2.95 1.29 -6.23 1.52 -7.27 0.23 -1.03 0.82 -3.66 1.27 -5.86 0.47 -2.18 1.34 -6.30 1.97 -9.14 0.63 -2.84 1.34 -6.16 1.57 -7.38 0.21 -1.22 0.49 -2.39 0.61 -2.60 0.09 -0.21 0.42 -1.64 0.68 -3.16 0.26 -1.55 0.63 -3.26 0.82 -3.82 0.19 -0.59 0.35 -1.34 0.35 -1.69 0 -0.35 0.21 -1.57 0.49 -2.70 0.26 -1.13 0.59 -2.60 0.68 -3.23 0.21 -1.22 2.16 -10.08 3.05 -13.78 0.26 -1.13 1.05 -4.88 1.76 -8.32 0.70 -3.45 1.55 -7.59 1.88 -9.21 0.33 -1.62 1.08 -5.09 1.64 -7.73 1.62 -7.41 1.73 -7.95 2.13 -9.96 0.91 -4.62 1.92 -9.19 2.18 -9.80 0.14 -0.35 0.82 -1.24 1.48 -1.97 2.58 -2.72 5.84 -3.42 8.88 -1.90 1.97 0.98 3.73 2.74 4.27 4.31 0.42 1.20 1.41 6.42 1.80 9.47 0.09 0.84 0.30 1.83 0.45 2.18 0.14 0.38 0.26 1.10 0.26 1.66 0 0.54 0.16 1.45 0.35 2.04 0.19 0.56 0.56 2.25 0.84 3.73 0.82 4.50 1.78 9.28 2.20 11.13 0.19 0.77 0.45 2.04 0.56 2.81 0.47 2.63 1.92 10.08 2.25 11.60 0.19 0.84 0.45 2.16 0.56 2.93 0.28 1.64 0.63 3.56 1.08 5.86 0.19 0.91 0.49 2.60 0.70 3.75 0.21 1.17 0.54 2.79 0.70 3.63 0.19 0.84 0.77 3.75 1.29 6.45 0.54 2.72 1.17 5.88 1.41 7.03 0.23 1.17 0.66 3.38 0.94 4.92 0.26 1.55 0.70 4.03 0.96 5.51 0.26 1.48 0.73 3.91 1.03 5.39 0.30 1.48 0.68 3.45 0.82 4.34 0.16 0.91 0.47 2.48 0.70 3.52 0.70 3.19 2.23 10.73 2.58 12.89 0.09 0.66 0.47 2.48 0.80 4.10 0.63 3.05 0.70 3.35 1.66 8.77 0.33 1.80 0.82 4.29 1.08 5.51 0.26 1.24 0.56 2.79 0.68 3.42 0.19 1.17 0.89 4.76 1.55 8.09 0.21 0.96 0.63 3.23 0.96 5.04 0.84 4.64 1.41 7.55 1.69 8.91 0.14 0.66 0.35 1.76 0.49 2.46 0.12 0.70 0.38 2.04 0.56 2.93 0.19 0.91 0.61 3.16 0.94 5.04 1.05 5.86 2.48 13.41 2.88 15.12 0.19 0.91 0.42 2.02 0.47 2.46 0.07 0.45 0.33 1.78 0.59 2.93 0.26 1.17 0.56 2.70 0.68 3.40 0.12 0.70 0.30 1.62 0.42 1.99 0.12 0.40 0.35 1.48 0.52 2.41 0.26 1.50 0.35 1.69 0.82 1.69 0.45 0 0.54 -0.16 0.68 -0.98 0.23 -1.66 2.23 -11.86 2.84 -14.60 0.30 -1.41 0.66 -3.09 0.80 -3.75 0.89 -4.57 5.46 -26.60 6.47 -31.17 0.33 -1.41 0.77 -3.59 1.03 -4.80 0.52 -2.51 1.13 -5.44 2.13 -10.08 0.38 -1.73 1.01 -4.69 1.36 -6.56 0.38 -1.88 1.05 -5.13 1.50 -7.27 0.47 -2.13 0.94 -4.38 1.05 -5.04 0.45 -2.30 1.95 -9.63 2.18 -10.48 0.26 -1.01 1.64 -7.38 2.44 -11.32 0.30 -1.55 0.77 -3.87 1.05 -5.16 0.47 -2.34 2.91 -13.57 4.22 -19.57 0.38 -1.73 0.82 -3.89 0.96 -4.80 0.54 -3.26 2.16 -5.65 4.64 -6.91 1.73 -0.87 2.53 -1.01 4.36 -0.82 1.22 0.14 1.83 0.35 2.93 1.08 2.20 1.43 3.40 3.45 4.45 7.55 0.26 1.05 0.70 2.72 0.96 3.68 0.26 0.96 0.63 2.34 0.80 3.05 0.54 2.16 1.29 4.95 1.78 6.56 0.23 0.84 0.70 2.48 1.01 3.63 0.30 1.17 0.98 3.63 1.52 5.51 0.54 1.88 1.24 4.41 1.55 5.63 0.33 1.22 0.80 2.86 1.05 3.63 0.26 0.77 0.47 1.59 0.47 1.80 0 0.23 0.30 1.50 0.68 2.81 0.38 1.34 1.01 3.68 1.43 5.23 0.77 2.81 1.52 5.58 3.26 11.72 0.52 1.80 1.31 4.71 1.76 6.47 0.45 1.76 0.96 3.70 1.17 4.34 0.30 0.98 2.39 8.65 4.29 15.68 1.13 4.24 2.25 8.27 3.05 11.13 1.45 5.13 1.62 5.74 3.21 11.79 0.42 1.59 0.54 1.80 0.96 1.80 0.16 0 0.35 0.12 0.40 0.28 0.05 0.14 0.33 -0.52 0.63 -1.48 0.30 -0.96 1.73 -5.37 3.19 -9.82 1.48 -4.45 3.09 -9.52 3.63 -11.25 0.52 -1.73 1.85 -5.86 2.95 -9.14 1.13 -3.28 2.48 -7.45 3.05 -9.26 1.73 -5.44 2.23 -6.19 5.11 -7.69 1.43 -0.75 1.43 -0.75 69.40 -0.82 67.97 -0.07 67.97 -0.07 69.56 0.47 0.87 0.28 1.57 0.61 1.57 0.70 0 0.12 0.42 0.56 0.94 1.03 0.52 0.47 1.27 1.52 1.64 2.32 0.94 1.97 0.98 4.52 0.14 6.33 -0.73 1.57 -3.26 3.98 -4.52 4.31 -0.70 0.19 -19.31 0.28 -65.27 0.33 -64.29 0.05 -64.29 0.05 -66.82 7.66 -1.38 4.20 -4.97 14.95 -7.97 23.91 -5.58 16.71 -8.34 25.17 -9.89 30.12 -1.38 4.43 -2.34 5.98 -4.66 7.43 -1.15 0.75 -1.29 0.77 -3.66 0.77 -2.11 0 -2.63 -0.07 -3.59 -0.56 -1.20 -0.59 -2.65 -1.92 -3.59 -3.30 -0.47 -0.68 -2.44 -7.15 -4.17 -13.59 -0.19 -0.70 -0.61 -2.23 -0.94 -3.40 -0.33 -1.15 -0.77 -2.74 -0.98 -3.52 -0.19 -0.77 -0.45 -1.71 -0.56 -2.11 -0.12 -0.38 -0.49 -1.76 -0.82 -3.05 -0.35 -1.29 -1.03 -3.77 -1.52 -5.51 -1.90 -6.52 -2.79 -9.75 -2.95 -10.66 -0.07 -0.52 -0.23 -1.10 -0.35 -1.31 -0.12 -0.21 -0.63 -2.02 -1.15 -3.98 -0.94 -3.54 -1.66 -6.23 -3.40 -12.63 -0.47 -1.73 -1.10 -4.03 -1.43 -5.09 -0.30 -1.05 -0.94 -3.33 -1.38 -5.04 -0.45 -1.71 -1.03 -3.91 -1.29 -4.88 -0.28 -0.96 -0.59 -2.18 -0.68 -2.70 -0.12 -0.52 -0.75 -2.88 -1.41 -5.27 -0.66 -2.39 -1.45 -5.39 -1.80 -6.68 -0.33 -1.29 -0.70 -2.60 -0.80 -2.93 -0.30 -0.91 -2.04 -7.52 -2.25 -8.55 -0.16 -0.70 -0.33 -0.94 -0.66 -0.94 -0.40 0 -0.56 0.56 -1.45 4.80 -0.54 2.65 -1.36 6.61 -1.85 8.79 -0.47 2.20 -1.15 5.51 -1.50 7.38 -1.22 6.28 -1.92 9.73 -2.25 11.13 -0.19 0.77 -0.52 2.30 -0.70 3.40 -0.21 1.10 -0.54 2.53 -0.70 3.16 -0.19 0.66 -0.61 2.48 -0.91 4.10 -0.73 3.73 -1.69 8.48 -1.99 9.84 -0.49 2.30 -0.94 4.43 -1.29 6.21 -0.21 1.03 -0.75 3.61 -1.20 5.74 -0.45 2.13 -0.84 4.20 -0.91 4.57 -0.07 0.40 -0.23 1.34 -0.35 2.11 -0.14 0.77 -0.73 3.63 -1.31 6.33 -0.59 2.72 -1.17 5.55 -1.31 6.33 -0.30 1.83 -1.57 8.39 -1.85 9.61 -0.12 0.52 -0.54 2.58 -0.94 4.57 -0.40 1.99 -0.87 4.22 -1.05 4.92 -0.16 0.70 -0.45 2.09 -0.61 3.05 -0.16 0.96 -0.49 2.65 -0.73 3.75 -0.54 2.46 -0.59 2.70 -2.32 11.48 -0.77 3.94 -1.55 7.73 -1.73 8.44 -0.19 0.70 -0.56 2.39 -0.82 3.75 -0.28 1.36 -0.70 3.47 -0.96 4.69 -0.23 1.22 -0.61 3.23 -0.82 4.45 -0.63 3.87 -2.23 6.45 -4.83 7.85 -1.01 0.56 -1.57 0.68 -3.12 0.75 -1.13 0.05 -2.25 -0.07 -2.84 -0.26 z "/>
 </g>
</svg>